<svg id="Layer_1" enable-background="new 0 0 512 512" height="512" viewBox="0 0 512 512" width="512" xmlns="http://www.w3.org/2000/svg"><g><g><g><g><g><path d="m115.183 31h33.133v102.1h-33.133z" fill="#eef1f3"/></g><g><path d="m231.15 31h33.133v102.1h-33.133z" fill="#eef1f3"/></g><path d="m272.85 40.633h-166.233c-4.418 0-8-3.582-8-8v-9.133c0-8.837 7.163-16 16-16h150.233c8.837 0 16 7.163 16 16v9.133c0 4.419-3.582 8-8 8z" fill="#f4de7f"/><path d="m164.883 7.5h49.7v33.133h-49.7z" fill="#365e7d"/><path d="m264.85 7.5h-23c8.837 0 16 7.164 16 16v9.133c0 4.418-3.582 8-8 8h23c4.418 0 8-3.582 8-8v-9.133c0-8.836-7.163-16-16-16z" fill="#f0c078"/></g><g fill="#cd8051"><path d="m322.267 371.967v49.7l-49.7 49.7h-165.667l-49.7-49.7v-49.7l132.275-8z"/><path d="m57.2 222.867v-49.7l49.7-49.7h165.667l49.7 49.7v49.7l-132.534 8z"/><path d="m57.2 338.833v-82.833l132.533-8.917 132.534 8.917v82.833l-132.534 8z"/></g><path d="m322.267 222.867v-49.7l-22.975-22.975v74.061z" fill="#c46b4b"/><g><g fill="#c46b4b"><path d="m322.267 338.833v-82.833l-22.975-1.546v85.766z"/><path d="m299.292 370.583v74.059l22.975-22.975v-49.7z"/></g></g><ellipse cx="106.9" cy="487.933" fill="#365e7d" rx="16.567" ry="16.567" transform="matrix(.952 -.306 .306 .952 -144.322 56.2)"/><ellipse cx="272.567" cy="487.933" fill="#365e7d" rx="16.567" ry="16.567" transform="matrix(.449 -.894 .894 .449 -285.796 512.491)"/><g><path d="m73.767 123.467c-9.15 0-16.567 7.417-16.567 16.567v33.133h33.133c9.149 0 16.567-7.417 16.567-16.567v-33.133z" fill="#f4de7f"/><path d="m289.133 173.167c-9.149 0-16.567-7.417-16.567-16.567v-33.133h33.134c9.15 0 16.567 7.417 16.567 16.567v33.133z" fill="#f4de7f"/><path d="m305.7 123.467h-22.975c9.15 0 16.567 7.417 16.567 16.567v33.133h22.975v-33.133c0-9.15-7.417-16.567-16.567-16.567z" fill="#fdd76f"/></g><g><g fill="#f4de7f"><path d="m305.7 471.367c9.15 0 16.567-7.417 16.567-16.567v-33.133h-33.133c-9.149 0-16.567 7.417-16.567 16.567v33.133z"/><path d="m73.767 471.367c-9.15 0-16.567-7.417-16.567-16.567v-33.133h33.133c9.149 0 16.567 7.417 16.567 16.567v33.133z"/></g></g><g><path d="m317.267 256h30.133c4.418 0 8-3.582 8-8v-17.133c0-4.418-3.582-8-8-8h-30.133z" fill="#f4de7f"/><path d="m317.267 338.833h30.133c4.418 0 8 3.582 8 8v17.133c0 4.418-3.582 8-8 8h-30.133z" fill="#f4de7f"/><g fill="#f0c078"><path d="m347.4 222.867h-23c4.418 0 8 3.582 8 8v17.133c0 4.418-3.582 8-8 8h23c4.418 0 8-3.582 8-8v-17.133c0-4.419-3.582-8-8-8z"/><path d="m347.4 338.833h-23c4.418 0 8 3.582 8 8v17.133c0 4.418-3.582 8-8 8h23c4.418 0 8-3.582 8-8v-17.133c0-4.418-3.582-8-8-8z"/></g></g><g><g><path d="m57.2 256h33.133 198.8 33.134v-33.133h-33.134-198.8-33.133z" fill="#365e7d"/><path d="m115.467 272.567h-17.134c-4.418 0-8-3.582-8-8v-50.267c0-4.418 3.582-8 8-8h17.133c4.418 0 8 3.582 8 8v50.267c.001 4.418-3.581 8-7.999 8z" fill="#f4de7f"/><path d="m281.133 272.567h-17.133c-4.418 0-8-3.582-8-8v-50.267c0-4.418 3.582-8 8-8h17.133c4.418 0 8 3.582 8 8v50.267c0 4.418-3.581 8-8 8z" fill="#f4de7f"/><path d="m299.279 222.867h23v33.133h-23z" fill="#2b4d66"/></g><g><path d="m57.2 371.967h33.133 198.8 33.134v-33.134h-33.134-198.8-33.133z" fill="#365e7d"/><path d="m115.467 388.533h-17.134c-4.418 0-8-3.582-8-8v-50.267c0-4.418 3.582-8 8-8h17.133c4.418 0 8 3.582 8 8v50.267c.001 4.419-3.581 8-7.999 8z" fill="#f4de7f"/><path d="m281.133 388.533h-17.133c-4.418 0-8-3.582-8-8v-50.267c0-4.418 3.582-8 8-8h17.133c4.418 0 8 3.582 8 8v50.267c0 4.419-3.581 8-8 8z" fill="#f4de7f"/><path d="m299.279 338.833h23v33.133h-23z" fill="#2b4d66"/></g></g><path d="m305.7 123.467h-22.975c9.15 0 16.567 7.417 16.567 16.567v33.133h22.975v-33.133c0-9.15-7.417-16.567-16.567-16.567z" fill="#f0c078"/><path d="m305.7 471.367h-22.975c9.15 0 16.567-7.417 16.567-16.567v-33.134h22.975v33.134c0 9.15-7.417 16.567-16.567 16.567z" fill="#f0c078"/></g><g><path d="m449.948 154.59-46.858 46.858c-6.47 6.47-16.959 6.47-23.429 0l-64.017-64.017c-3.917-3.917-5.617-9.532-4.531-14.963l7.81-39.048c1.312-6.558 6.438-11.684 12.996-12.996l39.048-7.81c5.431-1.086 11.047.614 14.963 4.531l64.017 64.017c6.47 6.469 6.47 16.958.001 23.428z" fill="#dd646e"/><path d="m449.948 131.161-64.017-64.017c-3.917-3.917-9.532-5.617-14.964-4.531l-10.983 2.197c1.055.659 2.047 1.435 2.946 2.334l64.017 64.017c6.47 6.47 6.47 16.959 0 23.429l-46.857 46.858c-.069.069-.145.127-.214.194 6.484 6.264 16.813 6.207 23.214-.194l46.857-46.858c6.47-6.47 6.47-16.959.001-23.429z" fill="#db4955"/></g></g><g><path d="m455.251 125.858-64.018-64.018c-5.703-5.703-13.83-8.162-21.736-6.581l-39.049 7.81c-2.174.435-4.229 1.167-6.141 2.131l-35.957-35.957v-5.743c0-12.958-10.542-23.5-23.5-23.5h-150.233c-12.958 0-23.5 10.542-23.5 23.5v9.133c0 8.547 6.953 15.5 15.5 15.5h1.066v67.833h-.783-33.133c-13.27 0-24.066 10.796-24.066 24.066v33.133 109.17c0 4.142 3.358 7.5 7.5 7.5s7.5-3.358 7.5-7.5v-18.835h18.133v1.067c0 8.547 6.953 15.5 15.5 15.5h17.133c8.547 0 15.5-6.953 15.5-15.5v-1.067h117.533v1.067c0 8.547 6.953 15.5 15.5 15.5h17.134c8.547 0 15.5-6.953 15.5-15.5v-1.067h18.133v67.833h-18.133v-1.067c0-8.547-6.953-15.5-15.5-15.5h-17.134c-8.547 0-15.5 6.953-15.5 15.5v1.067h-117.533v-1.067c0-8.547-6.953-15.5-15.5-15.5h-17.134c-8.547 0-15.5 6.953-15.5 15.5v1.067h-18.133v-18.997c0-4.142-3.358-7.5-7.5-7.5s-7.5 3.358-7.5 7.5v142.464c0 13.271 10.796 24.067 24.066 24.067h10.846c-1.143 2.8-1.779 5.86-1.779 9.066 0 13.271 10.797 24.067 24.067 24.067 13.271 0 24.067-10.796 24.067-24.067 0-3.207-.635-6.266-1.779-9.066h17.195c4.142 0 7.5-3.358 7.5-7.5s-3.358-7.5-7.5-7.5h-31.983v-25.633c0-13.271-10.796-24.067-24.066-24.067h-25.634v-34.7h18.133v1.066c0 8.547 6.953 15.5 15.5 15.5h17.133c8.547 0 15.5-6.953 15.5-15.5v-1.066h117.534v1.066c0 8.547 6.953 15.5 15.5 15.5h17.134c8.547 0 15.5-6.953 15.5-15.5v-1.066h18.133v34.7h-25.633c-13.271 0-24.067 10.796-24.067 24.067v25.633h-88.683c-4.142 0-7.5 3.358-7.5 7.5s3.358 7.5 7.5 7.5h73.895c-1.143 2.8-1.779 5.86-1.779 9.066 0 13.271 10.796 24.067 24.066 24.067 13.271 0 24.067-10.796 24.067-24.067 0-3.207-.636-6.266-1.779-9.066h10.846c13.271 0 24.066-10.796 24.066-24.067v-75.333h17.634c8.547 0 15.5-6.953 15.5-15.5v-25.133-82.834-25.133c0-8.547-6.953-15.5-15.5-15.5h-17.634v-42.2-11.007l44.591 44.591c4.546 4.546 10.59 7.049 17.019 7.049 6.428 0 12.472-2.503 17.018-7.049l46.857-46.857c4.545-4.546 7.049-10.589 7.049-17.018s-2.504-12.473-7.049-17.018zm-143.683-43.909-6.804 34.018h-32.197-.001-.783v-67.834h1.066c3.683 0 7.065-1.296 9.727-3.449l31.124 31.123c-.964 1.913-1.696 3.968-2.132 6.142zm36.332 249.384h-18.134v-67.833h18.134zm-51.266-115.966v-1.067c0-8.547-6.953-15.5-15.5-15.5h-17.134c-8.547 0-15.5 6.953-15.5 15.5v1.067h-117.533v-1.067c0-8.547-6.953-15.5-15.5-15.5h-17.134c-8.547 0-15.5 6.953-15.5 15.5v1.067h-18.133v-34.7h25.633c13.27 0 24.066-10.796 24.066-24.066v-25.633h.783 33.134 82.833 33.133.783v25.632c0 13.27 10.797 24.066 24.067 24.066h25.633v34.7h-18.131zm-140.817-167.234h67.833v67.833h-67.833zm16.566-15v-18.133h34.7v18.133zm66.267 48.134h18.133v34.7h-18.133zm18.133-15h-18.133v-18.134h18.133zm16.567-42.767v8.845.01.278c0 .276-.225.5-.5.5h-8.566-33.134-9.066v-18.133h42.766c4.686 0 8.5 3.813 8.5 8.5zm-167.233 9.133v-9.133c0-4.687 3.813-8.5 8.5-8.5h42.767v18.133h-9.066-33.134-8.566c-.277 0-.501-.224-.501-.5zm34.7 15.5v18.133h-18.134v-18.133zm-18.134 33.134h18.134v34.7h-18.134zm-57.983 58.766c0-4.999 4.067-9.066 9.066-9.066h25.634v25.633c0 4.999-4.067 9.066-9.066 9.066h-25.634zm0 108.467v-18.133h18.133v18.133zm51.267 16.067c0 .276-.224.5-.5.5h-17.134c-.276 0-.5-.224-.5-.5v-50.267c0-.276.224-.5.5-.5h17.133c.276 0 .5.224.5.5v50.267zm15-16.067v-18.133h117.533v18.133zm150.667 16.067c0 .276-.225.5-.5.5h-17.134c-.275 0-.5-.224-.5-.5v-50.267c0-.276.225-.5.5-.5h17.134c.275 0 .5.224.5.5zm15-34.2h18.133v18.133h-18.133zm-180.667 257.566c0 4.999-4.067 9.067-9.067 9.067-4.999 0-9.066-4.067-9.066-9.067 0-4.999 4.067-9.066 9.066-9.066s9.067 4.067 9.067 9.066zm-16.567-49.7v25.633h-25.633c-4.999 0-9.066-4.067-9.066-9.067v-25.633h25.633c4.998.001 9.066 4.068 9.066 9.067zm-34.7-73.766v-18.133h18.133v18.133zm51.267 16.066c0 .276-.224.5-.5.5h-17.134c-.276 0-.5-.224-.5-.5v-50.267c0-.276.224-.5.5-.5h17.133c.276 0 .5.224.5.5v50.267zm15-16.066v-18.133h117.533v18.133zm150.667 16.066c0 .276-.225.5-.5.5h-17.134c-.275 0-.5-.224-.5-.5v-50.267c0-.276.225-.5.5-.5h17.134c.275 0 .5.224.5.5zm15-34.2h18.133v18.133h-18.133zm-24.068 150.667c-4.999 0-9.066-4.067-9.066-9.067 0-4.999 4.067-9.066 9.066-9.066 5 0 9.067 4.067 9.067 9.066.001 5-4.067 9.067-9.067 9.067zm42.201-42.2c0 4.999-4.067 9.067-9.066 9.067h-25.634v-25.633c0-5 4.067-9.067 9.067-9.067h25.633zm33.133-90.833c0 .276-.225.5-.5.5h-17.634v-18.133h18.134zm0-133.1v17.633h-18.134v-18.133h17.634c.276 0 .5.224.5.5zm-33.133-65.2h-25.633c-5 0-9.067-4.067-9.067-9.066v-25.633h23.807c.98 4.39 3.182 8.482 6.468 11.767l4.426 4.426v18.506zm129.877-16.38-46.858 46.857c-1.712 1.712-3.989 2.655-6.41 2.655-2.422 0-4.699-.943-6.411-2.655l-57.392-57.392c-.002-.002-.004-.004-.006-.007l-6.619-6.619c-2.148-2.148-3.075-5.209-2.479-8.189l7.227-36.136 13.52 13.519c1.465 1.464 3.385 2.197 5.304 2.197s3.839-.732 5.304-2.197c2.929-2.929 2.929-7.678 0-10.606l-13.52-13.52 36.137-7.227c.595-.119 1.191-.177 1.785-.177 2.379 0 4.684.937 6.402 2.656l64.017 64.017c1.713 1.712 2.656 3.989 2.656 6.412-.001 2.423-.945 4.7-2.657 6.412z"/><path d="m361.536 125.858c-2.93-2.929-7.678-2.929-10.607 0s-2.929 7.678 0 10.606l2.929 2.929c1.465 1.464 3.385 2.197 5.304 2.197s3.839-.732 5.304-2.197c2.929-2.929 2.929-7.678 0-10.606z"/><path d="m417.179 134.644c-2.929-2.928-7.678-2.93-10.606.001-2.929 2.929-2.929 7.678.001 10.607l2.929 2.928c1.465 1.464 3.384 2.196 5.303 2.196s3.84-.732 5.304-2.197c2.929-2.929 2.929-7.678-.001-10.606z"/><path d="m387.016 106.262c-.811-4.062-4.765-6.695-8.825-5.884-4.061.813-6.696 4.764-5.884 8.825l11.715 58.572c.713 3.565 3.845 6.031 7.347 6.031.487 0 .982-.048 1.479-.147 4.061-.813 6.696-4.764 5.884-8.825z"/></g></g></svg>