<svg id="Layer_3" enable-background="new 0 0 64 64" height="512" viewBox="0 0 64 64" width="512" xmlns="http://www.w3.org/2000/svg"><g><path d="m33 26h9c1.105 0 2 .895 2 2v22c0 1.105-.895 2-2 2h-38c-1.105 0-2-.895-2-2v-22c0-1.105.895-2 2-2h9" fill="#4c506e"/><path d="m4 28h38v22h-38z" fill="#c8cded"/><path d="m6 28v17c0 1.105.895 2 2 2h30c1.105 0 2-.895 2-2v-17z" fill="#e2e7f6"/><path d="m31 46h-16c-1.105 0-2-.895-2-2v-28c0-1.105.895-2 2-2h16c1.105 0 2 .895 2 2v28c0 1.105-.895 2-2 2z" fill="#3d54bd"/><path d="m15 14c-1.105 0-2 .895-2 2v24h13c1.105 0 2-.895 2-2v-24z" fill="#546ded"/><path d="m17 24c-.552 0-1-.448-1-1v-6c0-.552.448-1 1-1 .552 0 1 .448 1 1v6c0 .552-.448 1-1 1z" fill="#acc9fb"/><path d="m24 17h4v6h-4z" fill="#acc9fb"/><path d="m28 17h2v6h-2z" fill="#7fa3f8"/><path d="m54 15h8v-2l-8-2v-7c0-1.105-.895-2-2-2-1.105 0-2 .895-2 2v7l-8 2v2h8v2l-3 3v2l5-2 5 2v-2l-3-3z" fill="#ba4753"/><path d="m29 58-.879-.879c-1.358-1.358-2.121-3.2-2.121-5.121h-6c0 1.921-.763 3.763-2.121 5.121l-.879.879" fill="#4c506e"/><g><path d="m16 25h2v2h-2z" fill="#fff"/></g><g><path d="m20 25h2v2h-2z" fill="#fff"/></g><g><path d="m24 25h2v2h-2z" fill="#fff"/></g><g><path d="m28 25h2v2h-2z" fill="#fff"/></g><g><path d="m16 41h2v2h-2z" fill="#fff"/></g><g><path d="m16 29h2v10h-2z" fill="#fff"/></g><g><path d="m20 41h2v2h-2z" fill="#fff"/></g><g><path d="m20 29h2v10h-2z" fill="#fff"/></g><g><path d="m24 41h2v2h-2z" fill="#fff"/></g><g><path d="m24 29h2v10h-2z" fill="#fff"/></g><path d="m36 49v-8l5 6h-3z" fill="#fff"/><g><path d="m51 24h2v2h-2z" fill="#ba4753"/></g><g><path d="m51 28h2v2h-2z" fill="#ba4753"/></g><g><path d="m51 32h2v2h-2z" fill="#ba4753"/></g><g><path d="m51 36h2v2h-2z" fill="#ba4753"/></g><g><path d="m47 36h2v2h-2z" fill="#ba4753"/></g><g><path d="m39 36h2v2h-2z" fill="#ba4753"/></g><g><path d="m35 36h2v2h-2z" fill="#ba4753"/></g><g fill="#e1656e"><path d="m53 16v-13.723c-.295-.171-.634-.277-1-.277s-.705.106-1 .277v13.723c0 .552.448 1 1 1s1-.448 1-1z"/><path d="m55 13h7l-7-1.75z"/><path d="m42 13h7v-1.75z"/><path d="m52 19-5 2.5v.5l5-2 5 2v-.5z"/></g><path d="m35 62h-24v-2c0-1.105.895-2 2-2h20c1.105 0 2 .895 2 2z" fill="#787faa"/><path d="m23 57h5.011c-1.286-1.346-2.011-3.134-2.011-5h-5v3c0 1.105.895 2 2 2z" fill="#787faa"/><path d="m31 62v-1c0-.552-.448-1-1-1h-14c-.552 0-1 .448-1 1v1z" fill="#4c506e"/><path d="m62.242 12.03-7.242-1.811v-6.219c0-1.654-1.346-3-3-3s-3 1.346-3 3v6.219l-7.242 1.811c-.446.111-.758.511-.758.97v2c0 .552.447 1 1 1h7v.586l-2.707 2.707c-.188.187-.293.442-.293.707v2c0 .332.165.642.439.828.275.187.625.222.932.101l4.629-1.852 4.629 1.852c.119.048.245.071.371.071.197 0 .393-.058.561-.172.274-.186.439-.496.439-.828v-2c0-.265-.105-.52-.293-.707l-2.707-2.707v-.586h7c.553 0 1-.448 1-1v-2c0-.459-.313-.859-.758-.97zm-1.242 1.97h-7c-.553 0-1 .448-1 1v2c0 .265.105.52.293.707l2.707 2.707v.109l-3.629-1.452c-.119-.047-.245-.071-.371-.071s-.252.024-.371.071l-3.629 1.452v-.109l2.707-2.707c.188-.187.293-.442.293-.707v-2c0-.552-.447-1-1-1h-7v-.219l7.242-1.811c.445-.111.758-.511.758-.97v-7c0-.551.448-1 1-1s1 .449 1 1v7c0 .459.312.859.758.97l7.242 1.811z"/><path d="m4 53h14.914c-.206 1.287-.803 2.475-1.742 3.414l-.586.586h-3.586c-1.654 0-3 1.346-3 3v2c0 .553.447 1 1 1h24c.553 0 1-.447 1-1v-2c0-1.654-1.346-3-3-3h-3.586l-.586-.586c-.939-.939-1.535-2.127-1.742-3.414h14.914c1.654 0 3-1.346 3-3v-22c0-1.654-1.346-3-3-3h-8v-9c0-1.654-1.346-3-3-3h-16c-1.654 0-3 1.346-3 3v9h-8c-1.654 0-3 1.346-3 3v22c0 1.654 1.346 3 3 3zm30 7v1h-22v-1c0-.552.448-1 1-1h20c.552 0 1 .448 1 1zm-7.301-3h-7.398c.895-1.167 1.457-2.538 1.633-4h4.133c.176 1.462.737 2.833 1.632 4zm-12.699-41c0-.551.448-1 1-1h16c.552 0 1 .449 1 1v28c0 .552-.448 1-1 1h-16c-.552 0-1-.448-1-1zm-11 12c0-.551.448-1 1-1h8v17c0 1.654 1.346 3 3 3h16c1.654 0 3-1.346 3-3v-17h8c.552 0 1 .449 1 1v22c0 .552-.448 1-1 1h-38c-.552 0-1-.448-1-1z"/><path d="m16 25h2v2h-2z"/><path d="m20 25h2v2h-2z"/><path d="m24 25h2v2h-2z"/><path d="m28 25h2v2h-2z"/><path d="m16 41h2v2h-2z"/><path d="m16 29h2v10h-2z"/><path d="m20 41h2v2h-2z"/><path d="m20 29h2v10h-2z"/><path d="m24 41h2v2h-2z"/><path d="m24 29h2v10h-2z"/><path d="m24 24h6c.553 0 1-.448 1-1v-6c0-.552-.447-1-1-1h-6c-.553 0-1 .448-1 1v6c0 .552.447 1 1 1zm1-6h4v4h-4z"/><path d="m35.617 49.924c.124.052.254.076.383.076.26 0 .516-.102.707-.293l1.707-1.707h2.586c.388 0 .741-.225.905-.576.165-.351.111-.766-.137-1.064l-5-6c-.271-.323-.715-.442-1.109-.3-.395.143-.659.519-.659.94v8c0 .404.243.77.617.924zm1.383-6.162 1.865 2.238h-.865c-.266 0-.52.105-.707.293l-.293.293z"/><path d="m51 24h2v2h-2z"/><path d="m51 28h2v2h-2z"/><path d="m51 32h2v2h-2z"/><path d="m51 36h2v2h-2z"/><path d="m47 36h2v2h-2z"/><path d="m39 36h2v2h-2z"/><path d="m35 36h2v2h-2z"/></g></svg>